PathFileType	4	(X/Y/Z)	Patient4_TMGait_0pt3_02_right_14.trc.trc
DataRate	CameraRate	NumFrames	NumMarkers	Units	OrigDataRate	OrigDataStartFrame	OrigNumFrames
54.687500000000	54.687500000000	6	33	mm	54.687500000000	53	       141
Frame#	Time	Sacral			L.Shoulder			Chest			R.Shoulder			Neck			R.ASIS			L.ASIS			R.Thigh.Superior			R.Thigh.Lateral			R.Thigh.Inferior			R.Patella			L.Thigh.Superior			L.Thigh.Lateral			L.Thigh.Inferior			L.Patella			L.Shank.Superior			L.Shank.Lateral			L.Shank.Inferior			R.Shank.Superior			R.Shank.Lateral			R.Shank.Inferior			R.Heel			R.Midfoot.Superior			R.Midfoot.Lateral			R.Toe			L.Heel			L.Midfoot.Lateral			L.Midfoot.Superior			L.Toe			L.Elbow			L.Wrist			R.Elbow			R.Wrist			
		X1	Y1	Z1	X2	Y2	Z2	X3	Y3	Z3	X4	Y4	Z4	X5	Y5	Z5	X6	Y6	Z6	X7	Y7	Z7	X8	Y8	Z8	X9	Y9	Z9	X10	Y10	Z10	X11	Y11	Z11	X12	Y12	Z12	X13	Y13	Z13	X14	Y14	Z14	X15	Y15	Z15	X16	Y16	Z16	X17	Y17	Z17	X18	Y18	Z18	X19	Y19	Z19	X20	Y20	Z20	X21	Y21	Z21	X22	Y22	Z22	X23	Y23	Z23	X24	Y24	Z24	X25	Y25	Z25	X26	Y26	Z26	X27	Y27	Z27	X28	Y28	Z28	X29	Y29	Z29	X30	Y30	Z30	X31	Y31	Z31	X32	Y32	Z32	X33	Y33	Z33	

53	27.240857142857	676.484409615521	991.755474806043	530.184381428463	859.971213604227	1424.629852840415	349.447528915110	958.624553454859	1357.817262724122	513.185696528245	869.494592186674	1429.390212367683	685.167806897991	839.857902182447	1485.739962041351	507.865293896614	911.098829740602	931.758268551464	644.515033980721	893.432651655035	959.369714922767	372.302015487734	964.453903427323	734.570511635636	602.695014105288	889.829302423246	616.782909377058	654.570057635300	968.328506803656	572.768380713053	570.040035126742	973.049176171662	478.726310609206	571.175998012409	983.341842338814	775.264543900803	412.076930070527	947.143297344069	644.965001629853	337.298617036235	1043.654713515677	587.090414612084	412.528054159306	1060.779582888934	500.530247436425	404.947105008412	1004.741947640810	431.110494311603	387.520006771228	875.626525674344	366.483987161018	332.092154843582	888.317181658254	234.581658792732	379.152375332920	930.643644459158	390.150957837733	575.707061091498	848.641687859665	293.735366490857	636.479555723494	874.139675745765	197.649863111620	569.422819940762	720.090206986986	42.703970302174	541.175305794819	892.580426150613	96.353774973537	576.302389559778	803.320218105948	37.221761685549	615.657709914798	1011.578648928834	43.050159479236	605.636828280202	716.221554433964	127.604852239191	409.876065847582	781.752685475034	105.504422442483	326.230568383439	881.442111060985	135.292897353954	350.269071605700	982.164962301096	48.577919603649	311.545475697843	877.681490111791	1070.492277703314	232.127308082024	1022.520959373535	856.327526558998	225.588912130455	847.049544842954	1085.357487504904	819.232923918039	1006.905041920201	882.883790085501	856.082444456493	
54	27.259142857143	675.070996093070	991.564112162423	533.254214330119	856.860396030632	1423.225488678305	348.852544180665	957.885863595468	1357.234606232760	511.491315723346	871.387406702441	1429.721608675292	684.510913416297	838.929640205315	1485.195970788401	507.129638454311	910.554902407766	930.977683666541	644.817293059348	890.075536617661	959.115967429815	372.848702711032	962.761390575670	733.672216765398	602.298219763062	888.557690318239	615.959168859295	654.791310682485	966.080736371944	571.886013980887	569.455142145775	970.498889362855	477.685168910135	570.508792093006	981.122998346305	776.586018525451	412.828342973750	946.090962865416	646.105774820188	337.901579665482	1042.811791946878	589.301155625919	413.369673412074	1062.044817986425	504.298733549638	405.725223305158	1009.846491925393	433.556227439839	388.059071749232	885.472671773231	361.065484576758	332.401255901016	906.529509325448	230.056189887471	379.673944482186	927.394854115483	389.230794428327	575.306750882355	845.132899541203	293.284351801667	636.417094361456	869.566633355092	197.093364043234	569.159021205322	714.599752756269	42.724262280572	541.200610228056	887.042272121597	96.220576364066	576.140875851910	797.834937677940	37.230131055512	615.687047875849	1006.110695835275	42.855588894677	605.643689454490	741.743165158870	111.904833220997	410.513872470671	808.937660091136	94.206707786253	326.946047091956	906.398253084791	130.458105828265	351.038525622765	1012.794914343927	50.753694896374	312.581245991320	864.240439406557	1066.828796074813	236.439837768181	988.185130579737	839.761171952749	229.964913744996	859.217520075942	1085.481103953232	819.656229060600	1034.924282673474	896.342384334279	851.832505350325	
55	27.277428571429	673.766207699447	991.678102059768	536.022757761979	854.042684901157	1422.029566033382	348.104979852712	957.302278624516	1356.771382185411	509.660752014264	873.388102772951	1430.253909837943	683.609947942384	838.213510078482	1484.861239789954	506.205059747925	909.949474563940	930.391541960116	644.991507951284	886.835880478589	958.906660960018	373.267201196461	960.730378770009	732.851128416763	601.976180306845	886.731022389631	615.340929338555	655.083937719309	963.288014196703	571.084720823020	569.050754916533	967.290082087508	476.795773309159	570.064163167572	978.533566403206	777.584788532065	413.192918111067	944.309007872836	647.064558975596	338.004753429999	1041.167663033674	591.086275399338	413.592653400926	1062.393405020882	507.886807225377	405.984970557124	1014.194036526676	435.991704795618	388.321103827325	895.345939279691	355.544732375001	332.167105410940	924.696249211052	226.001596895214	380.128342406123	923.627100799066	388.486441137887	575.091206506155	841.188280263923	292.909154491995	636.463234457557	864.761678594442	196.647310078882	569.021348061877	709.096100147930	42.746733048916	541.234536789083	881.480089708348	96.093563157879	576.011512125694	792.336694268554	37.233079712872	615.721159142057	1000.626094821494	42.671060214313	605.658210186726	767.760111750127	97.234236105107	410.753201354598	836.778260996334	83.488289022693	327.754508379537	931.638814146441	126.073853540949	352.132522127299	1043.380644302461	53.298177754940	314.984502326792	850.249659754525	1063.944882928215	240.499157352484	953.014408998697	826.217259386002	234.724433280074	871.571369924153	1086.150880537469	819.566783834634	1062.456121932465	912.163733633600	846.395270249385	
56	27.295714285714	672.586377758713	992.120384965158	538.460055007263	851.502922869644	1421.093766645055	347.206672295088	956.862243442461	1356.468408687189	507.690093793360	875.483498124093	1431.009445381658	682.464457875426	837.699685094867	1484.765977302076	505.097406004653	909.317960007673	930.036585124412	645.044906717586	883.806024150697	958.802466913025	373.545480461217	958.383303970740	732.124096871666	601.724345714938	884.345942550861	614.945301732880	655.441555087443	959.941660695198	570.375470533947	568.818841960182	963.398750094602	476.072700831325	569.828120037426	975.659740941642	778.295862936234	413.222588412961	941.920099788291	647.872924400794	337.637303340715	1038.835747632035	592.454609978460	413.244248104707	1061.888546325730	511.260748915257	405.790075125078	1017.736910880944	438.423252388601	388.344451935285	905.080894319837	350.219795150617	331.418100833864	942.362907031753	222.682127384711	380.517586931380	919.329879755838	387.935639497835	575.050226151811	836.798310041736	292.620029301055	636.611475104400	859.722113815337	196.324866184411	569.001256036342	703.576163384139	42.768721454976	541.278841324859	875.897034169991	95.978481543664	575.915432727112	786.823457625557	37.230759239800	615.760295785068	995.121049455034	42.508147673480	605.678895249588	793.579545340919	84.185951873523	410.568767199172	864.569851944644	73.861082783620	328.622576158693	956.522258755415	122.444733215143	353.517193853841	1073.121643979643	56.301394495051	318.679553333474	835.700428514389	1061.995817365039	244.195595501636	917.602403596068	815.897387944564	239.818037954726	884.104832659618	1087.408322400095	818.992370616110	1089.087200494899	930.274575641202	839.870857957631	
57	27.314000000000	671.557119648872	992.891316795689	540.543967660356	849.211279373805	1420.453843458471	346.161186725961	956.549651408538	1356.356111913551	505.573378331427	877.658512167357	1431.996885984660	681.075684840753	837.365876287541	1484.922539286532	503.813913114899	908.704118855211	929.929650322810	644.976258187893	881.069429081787	958.850169476212	373.670682892145	955.758299159445	731.497171169260	601.520101754718	881.432375163068	614.777186239480	655.846744256979	956.059248857292	569.762624640456	568.732176496502	958.836613962059	475.524812335756	569.770471831469	972.606393338329	778.753026653533	412.969830168298	939.048334597325	648.552893706684	336.854079280267	1035.929506946676	593.410307471405	412.393454157407	1060.585907622706	514.367630679820	405.219533738117	1020.424836937288	440.824117246899	388.164453264150	914.446610815173	345.316499557084	330.221377353438	959.069784503064	220.241738331155	380.838347649569	914.517786547488	387.584396071187	575.158318529183	831.976822106301	292.422324660047	636.847463353312	854.456945931225	196.131078531180	569.082234085630	698.038304579912	42.787255066014	541.334359413626	870.296576236121	95.878669014421	575.849970921230	781.294476545085	37.223546026864	615.804835118727	989.593422257642	42.376621825616	605.703478241463	818.492451886420	73.122082200469	409.980428479123	891.569917788895	65.664187011264	329.512115698134	980.396990791502	119.753994758151	355.121542844328	1101.266254422116	59.790382612970	323.453337924989	820.640733888825	1061.106668008144	247.444356064046	882.544685274540	808.836400814204	245.169339723582	896.792756758112	1089.285961468791	817.965814185898	1114.426122804585	950.515787238051	832.384739138593	
58	27.332285714286	670.712366044228	993.963665501105	542.262659468718	847.128525016353	1420.123764919771	344.973678349092	956.345549037186	1356.448567012120	503.304499385218	879.894862394076	1433.205604126859	679.447471652403	837.180276715540	1485.321356288927	502.363965818772	908.158380490368	930.065396532157	644.776402516743	878.690807197924	959.069836231410	373.630214702008	952.909390675271	730.964815609163	601.328558022181	878.052065832128	614.828350837338	656.274124224900	951.686451113037	569.242628565798	568.751324723548	953.653177015226	475.153003096190	569.851563857963	969.491812649003	778.979232661132	412.477147828661	935.805876014044	649.107166494830	335.730046769871	1032.555891375982	593.948605865443	411.121280118833	1058.534297862961	517.132747537176	404.355376233118	1022.209818343531	443.130050471463	387.807364232844	923.159560557257	340.969525144167	328.678441167145	974.378331918668	218.696405603958	381.082769091440	909.232096429954	387.425252641533	575.379591174969	826.761441337933	292.315631009395	637.151961247014	848.986590493170	196.061720198192	569.242825137311	692.482435443312	42.799823078733	541.401026611607	864.683374741400	95.795785212797	575.811813203733	775.750266874907	37.211932938605	615.855086736263	984.043226628810	42.282777949376	605.729333118476	841.820506427814	64.168241610964	409.057445135263	917.036597009260	59.052210855789	330.384420049886	1002.633254300486	118.054657185926	356.844096146231	1127.138507978751	63.719321108771	328.966629986858	805.179289138877	1061.353164778096	250.197231076208	848.394877424930	804.907494368861	250.679093196919	909.593127865298	1091.799044492451	816.524853156522	1138.127654135350	972.640559916403	824.084816046915	
